<?xml version="1.0" encoding="UTF-8" standalone="no"?>
<svg viewBox="16 0 544 512" version="1.1" width="544" height="544" xmlns="http://www.w3.org/2000/svg" xmlns:svg="http://www.w3.org/2000/svg">
<!--! Font Awesome Pro 6.4.2 by @fontawesome - https://fontawesome.com License - https://fontawesome.com/license (Commercial License) Copyright 2023 Fonticons, Inc. -->
<path fill="#8b8b8b" d="M 250.7,42.7 213,56.8 c -3,1.1 -5,4 -5,7.2 0,3.2 2,6.1 5,7.2 l 37.7,14.1 14.1,37.7 c 1.1,3 4,5 7.2,5 3.2,0 6.1,-2 7.2,-5 L 293.3,85.3 331,71.2 c 3,-1.1 5,-4 5,-7.2 0,-3.2 -2,-6.1 -5,-7.2 L 293.3,42.7 279.2,5 c -1.1,-3 -4,-5 -7.2,-5 -3.2,0 -6.1,2 -7.2,5 z M 62.1,395.4 c -18.7,18.7 -18.7,49.1 0,67.9 l 34.6,34.6 c 18.7,18.7 49.1,18.7 67.9,0 L 545.9,116.5 c 18.7,-18.7 18.7,-49.1 0,-67.9 L 511.3,14.1 c -18.7,-18.7 -49.1,-18.7 -67.9,0 z m 438.5,-312.8 -105,105 -23.3,-23.3 105,-105 z M 23.5,117.2 c -4.5,1.7 -7.5,6 -7.5,10.8 0,4.8 3,9.1 7.5,10.8 L 80,160 l 21.2,56.5 c 1.7,4.5 6,7.5 10.8,7.5 4.8,0 9.1,-3 10.8,-7.5 L 144,160 200.5,138.8 c 4.5,-1.7 7.5,-6 7.5,-10.8 0,-4.8 -3,-9.1 -7.5,-10.8 L 144,96 122.8,39.5 C 121.1,35 116.8,32 112,32 c -4.8,0 -9.1,3 -10.8,7.5 L 80,96 Z m 352,256 c -4.5,1.7 -7.5,6 -7.5,10.8 0,4.8 3,9.1 7.5,10.8 l 56.5,21.2 21.2,56.5 c 1.7,4.5 6,7.5 10.8,7.5 4.8,0 9.1,-3 10.8,-7.5 L 496,416 552.5,394.8 c 4.5,-1.7 7.5,-6 7.5,-10.8 0,-4.8 -3,-9.1 -7.5,-10.8 L 496,352 474.8,295.5 c -1.7,-4.5 -6,-7.5 -10.8,-7.5 -4.8,0 -9.1,3 -10.8,7.5 L 432,352 Z"/>
</svg>
